<svg xmlns="http://www.w3.org/2000/svg" version="1.1" xmlns:xlink="http://www.w3.org/1999/xlink" xmlns:svgjs="http://svgjs.dev/svgjs" width="2000" height="2242" viewBox="0 0 2000 2242"><g transform="matrix(1,0,0,1,-3.114924231515147,0)"><svg viewBox="0 0 321 360" data-background-color="#121212" preserveAspectRatio="xMidYMid meet" height="2242" width="2000" xmlns="http://www.w3.org/2000/svg" xmlns:xlink="http://www.w3.org/1999/xlink"><g id="tight-bounds" transform="matrix(1,0,0,1,0.5000546608418972,0)"><svg viewBox="0 0 320 360" height="360" width="320"><g><svg></svg></g><g><svg viewBox="0 0 320 360" height="360" width="320"><g><path transform="translate(-119.39272,-98.31927) scale(5.58313,5.58313)" d="M36.7 23.5c0-0.2 0.1-0.4 0.3-0.4 0.2 0 0.4 0.1 0.4 0.4 0.1 0 0.3 0 0.4-0.1 0.4 0 0.8-0.1 1.1 0 0.3 0.1 0.5 0.1 0.8 0.2 0.3 0.1 0.5 0 0.7-0.1 0.4-0.1 0.7-0.3 1.1-0.4 0.2-0.1 0.3-0.1 0.5-0.1 0.2-0.1 0.4-0.1 0.7-0.2 0.5-0.1 1-0.2 1.4-0.4 0.4-0.2 0.8-0.2 1.2-0.3 0.2 0 0.3-0.1 0.5-0.2 0.1 0 0.1-0.1 0.2-0.2 0.2-0.1 0.3-0.2 0.5-0.1 0.1 0.1 0.3 0.1 0.4 0h0.1c0.6 0 1.2-0.1 1.9 0 0.1 0 0.2 0 0.2 0 0.3-0.2 0.7-0.2 1.1-0.2 0.1 0 0.3 0 0.4 0h0.1c0.4 0 0.8 0 1.1 0.1 0.3 0 0.5 0.1 0.8 0.2 0.3 0 0.5 0 0.8 0.1 0.2 0 0.4 0 0.6 0 0.1 0 0.2 0 0.2 0 0.4 0.1 0.8 0.1 1.2 0.1 0.3 0.1 0.6 0.2 1 0.2 0.1 0 0.2 0 0.3 0 0.1 0 0.2 0.1 0.3 0.1l0.1 0.1c0.4 0 0.7 0.2 1.1 0.2 0.1 0 0.3 0 0.4 0.1 0.3 0.2 0.7 0.3 1.1 0.3 0.2 0 0.3 0.1 0.4 0.2 0.3 0.1 0.5 0.2 0.8 0.3 0.2 0.1 0.4 0 0.6 0.1 0.3 0.1 0.7 0.2 1 0.5 0.2 0.2 0.4 0.2 0.7 0.4 0.1 0 0.2 0.1 0.3 0.2 0.3 0.2 0.6 0.4 0.9 0.5 0.1 0 0.2 0.1 0.3 0.1 0.3 0.2 0.6 0.5 1 0.7 0.2 0.1 0.3 0.2 0.5 0.3h0.1c0.3 0.3 0.7 0.5 1 0.8 0.3 0.3 0.5 0.5 0.9 0.7 0 0 0 0 0 0.1 0.1 0.2 0.2 0.3 0.4 0.4 0.2 0.1 0.3 0.2 0.4 0.3 0.3 0.2 0.6 0.4 0.8 0.6 0.1 0.1 0.2 0.2 0.4 0.4 0.1 0.1 0.2 0.2 0.3 0.2 0.4 0.1 0.6 0.4 0.9 0.7 0.2 0.2 0.5 0.5 0.7 0.7 0.1 0.1 0.2 0.3 0.3 0.5 0.2 0.6 0.5 1.2 0.8 1.7 0 0 0 0.1 0.1 0.2v0.1c0.2 0.2 0.3 0.5 0.5 0.7 0.1 0.1 0.1 0.2 0.2 0.3 0.2 0.3 0.3 0.7 0.5 1 0.3 0.5 0.5 1 0.7 1.5v0.1c0.1 0.2 0.2 0.4 0.3 0.7 0 0.2 0.2 0.4 0.3 0.7 0.1 0.5 0.4 1 0.5 1.6 0 0.1 0.1 0.2 0.1 0.4 0.1 0.3 0.2 0.6 0.3 0.9 0 0.1 0.1 0.2 0.2 0.3 0.2 0.2 0.2 0.4 0.2 0.6-0.1 0.4 0 0.8 0.1 1.2 0 0.1 0 0.2 0 0.4 0.1 0.4 0.2 0.9 0.2 1.3 0 0.1 0 0.3 0 0.4 0 0.3 0.1 0.6 0.3 0.9 0 0.1 0.1 0.1 0.1 0.1 0.1 0.1 0.2 0.3 0.3 0.4 0.1 0.1 0.1 0.1 0.2 0.2 0.2 0.2 0.3 0.4 0.3 0.7 0 0.1-0.1 0.3-0.1 0.4 0 0.1 0 0.3 0.1 0.4 0.1 0.1 0.1 0.2 0.1 0.3 0 0.1-0.1 0.2-0.2 0.2v0c-0.1 0.3-0.5 0.4-0.6 0.7-0.1 0.4-0.2 0.8-0.3 1.2-0.1 0.3-0.1 0.5-0.1 0.8 0 0.3-0.1 0.5-0.1 0.8-0.1 0.4-0.2 0.8-0.3 1.2 0 0.2-0.1 0.4-0.1 0.6 0.1 0.1 0.2 0.2 0.3 0.2 0.2 0.2 0.4 0.4 0.6 0.6 0.1 0.1 0.1 0.2 0 0.2-0.1 0.1-0.2 0.1-0.3 0.1-0.1-0.1-0.3-0.2-0.4-0.2-0.1-0.1-0.3-0.2-0.5-0.1 0 0.2-0.1 0.4-0.1 0.5-0.1 0.2-0.2 0.5-0.2 0.7-0.1 0.4-0.3 0.7-0.4 1.1-0.2 0.5-0.4 0.9-0.6 1.3-0.1 0.2-0.2 0.4-0.3 0.6v0c0 0.3-0.3 0.6-0.4 0.9-0.2 0.4-0.4 0.8-0.6 1.3-0.1 0.2-0.2 0.4-0.3 0.5-0.2 0.5-0.4 0.9-0.7 1.3-0.2 0.3-0.4 0.5-0.6 0.6-0.2 0.2-0.4 0.4-0.6 0.6-0.1 0.1-0.2 0.2-0.3 0.3-0.1 0.1-0.1 0.1-0.2 0.2-0.2 0.3-0.5 0.5-0.7 0.8-0.2 0.2-0.3 0.4-0.6 0.6-0.2 0.2-0.4 0.5-0.7 0.6-0.1 0.1-0.2 0.3-0.3 0.4-0.1 0.1-0.2 0.3-0.3 0.4 0 0.2 0.1 0.4 0.1 0.5 0 0.3-0.3 0.4-0.5 0.2-0.3-0.2-0.3-0.2-0.6 0-0.3 0.2-0.6 0.5-1 0.6-0.1 0-0.1 0.1-0.2 0.1-0.2 0.1-0.3 0.3-0.5 0.4-0.2 0.2-0.5 0.3-0.7 0.5-0.1 0.1-0.2 0.1-0.3 0.2-0.3 0.2-0.6 0.3-0.9 0.6-0.1 0.1-0.2 0.1-0.3 0.2 0 0.1 0 0.1 0 0.2 0 0.2-0.2 0.4-0.5 0.3-0.3-0.1-0.5 0-0.8 0-0.3 0.1-0.6 0.3-0.9 0.4-0.1 0-0.2 0.1-0.3 0.2-0.3 0.2-0.6 0.3-0.9 0.4-0.2 0-0.4 0.2-0.6 0.2-0.1 0-0.2 0.1-0.3 0.1h-0.1c-0.4 0.3-0.8 0.5-1.2 0.8-0.1 0-0.1 0.1-0.2 0.2-0.1 0.2-0.2 0.3-0.4 0.3-0.5 0-0.7 0.4-0.6 0.8 0 0.1 0.1 0.2 0.1 0.3 0.1 0.2 0 0.4-0.1 0.5-0.1 0.1-0.4 0.1-0.5-0.1-0.2-0.2-0.3-0.4-0.4-0.7-0.1-0.2-0.3-0.4-0.5-0.5-0.2-0.1-0.4-0.1-0.6 0-0.1 0-0.1 0.1-0.2 0.1-0.2 0.2-0.5 0.3-0.8 0.2-0.1 0-0.3 0-0.3 0.1-0.1 0.1-0.1 0.3 0 0.4 0.2 0.2 0.1 0.4 0.1 0.7 0 0.4-0.3 0.6-0.7 0.4-0.1-0.1-0.2-0.1-0.3-0.2-0.1 0-0.1-0.1-0.1-0.2-0.1-0.1-0.1-0.3-0.2-0.5-0.2 0.1-0.4 0.1-0.6 0.2-0.1 0-0.2 0.1-0.3 0.1-0.3 0-0.4 0-0.5-0.3-0.1-0.3-0.3-0.3-0.5-0.4-0.4-0.1-0.9-0.1-1.3-0.3h-0.1c-0.4-0.3-0.8-0.3-1.3-0.3-0.3 0-0.6 0.1-0.9 0.1-0.3 0-0.5 0.1-0.7 0.3-0.1 0.1-0.2 0.2-0.3 0.2-0.1-0.1-0.1-0.2-0.2-0.3v-0.1c0-0.1-0.1-0.2-0.2-0.1-0.2 0.1-0.4-0.1-0.6-0.2-0.1-0.1-0.3-0.3-0.3-0.5-0.1-0.1-0.2-0.2-0.3-0.2-0.2 0-0.5-0.1-0.7-0.1-0.1 0-0.2 0-0.2-0.1-0.1-0.1-0.2-0.1-0.4-0.1-0.1 0-0.1-0.1-0.2-0.1 0.2 0.2 0.3 0.4 0.4 0.6 0 0.1 0.1 0.1 0.1 0.2 0.1 0.2 0 0.3-0.3 0.3-0.2 0-0.2 0-0.3 0.1 0 0.2 0 0.3 0 0.5 0 0.1 0 0.2-0.2 0.3 0 0-0.1 0-0.1 0.1-0.1 0.1-0.1 0.2 0 0.3 0.3 0.2 0.5 0.3 0.8 0.4 0.3 0 0.3 0.2 0.4 0.4 0.1 0.2 0 0.3-0.1 0.5-0.2 0.2-0.4 0.4-0.6 0.6-0.3 0.1-0.5 0.4-0.8 0.4-0.2 0-0.4-0.1-0.5-0.3-0.1-0.5-0.1-0.9 0.1-1.4 0-0.1 0.1-0.2 0-0.3-0.9 0-0.9-0.2-0.9-0.3 0-0.2 0.1-0.3 0.1-0.5 0.1-0.2 0-0.3-0.3-0.4-0.1 0-0.2 0-0.3 0-0.1 0-0.1-0.1-0.3-0.1 0.2-0.1 0.3-0.1 0.5-0.2-0.1-0.4-0.2-0.7-0.5-0.9-0.1-0.1-0.2-0.2-0.2-0.4 0-0.3-0.2-0.5-0.3-0.7-0.2-0.3-0.6-0.4-0.9-0.4-0.3-0.1-0.5-0.1-0.8-0.2-0.3-0.1-0.6-0.4-0.9-0.5-0.1-0.1-0.2-0.2-0.4-0.3-0.4-0.2-0.7-0.5-1-0.8-0.2-0.1-0.3-0.3-0.5-0.4-0.2-0.2-0.3-0.4-0.5-0.5-0.2-0.2-0.4-0.4-0.7-0.6-0.3-0.2-0.5-0.5-0.8-0.8-0.2-0.3-0.5-0.5-0.8-0.7-0.1 0-0.2 0-0.3 0-0.1 0-0.2 0.1-0.3 0.1-0.3 0.1-0.5 0.3-0.8 0.4 0.1-0.1 0.1-0.1 0-0.3-0.1-0.1-0.2-0.2-0.3-0.2-0.2 0-0.4 0-0.6 0-0.4 0-0.8 0.1-1.2 0.1-0.3 0-0.7 0.1-1 0.2 0.1 0.2 0.1 0.3 0.2 0.5-0.2 0.1-0.4 0.1-0.6 0.1-0.1 0-0.3 0.1-0.4 0.2-0.1 0-0.1 0.1-0.2 0-0.2-0.1-0.4 0-0.6 0.1h-0.1c0 0 0-0.1 0.1-0.1 0.1-0.1 0.2-0.2 0.3-0.3 0.1-0.1 0.2-0.1 0.4-0.2-0.1-0.1-0.1-0.2-0.1-0.2-0.1-0.1-0.2-0.1-0.3 0-0.1 0.1-0.2 0.2-0.3 0.3-0.1 0.1-0.2 0.1-0.3 0-0.1-0.1-0.1-0.2 0-0.3 0-0.1 0.1-0.2 0.2-0.3 0.1-0.1 0.1-0.2 0.2-0.3-0.2-0.2-0.3-0.4-0.5-0.5-0.3-0.2-0.6-0.5-0.8-0.8-0.2-0.4-0.5-0.7-0.9-0.9-0.1-0.1-0.2-0.2-0.3-0.3-0.1-0.1-0.1-0.1-0.2-0.2-0.3 0.1-0.5 0.3-0.8 0.4-0.1 0-0.1 0.1-0.2 0.2-0.1 0.2-0.3 0.2-0.5 0.2-0.1 0-0.2-0.1-0.1-0.2 0.1-0.2 0.2-0.4 0.5-0.3 0 0 0.1 0 0.1-0.1 0.2-0.2 0.4-0.5 0.7-0.7-0.1-0.3-0.3-0.5-0.4-0.7-0.1-0.1-0.1-0.2-0.1-0.4 0-0.1 0-0.1-0.1-0.2 0 0-0.1 0-0.2 0.1-0.1 0.1-0.3 0.2-0.5 0 0-0.1 0-0.2 0.1-0.3l0.1-0.1c0.3-0.1 0.3-0.4 0.3-0.7v-0.1c-0.1-0.2-0.1-0.3 0.1-0.5 0.3-0.2 0.6-0.6 0.7-0.9 0.1-0.2 0.3-0.3 0.5-0.5 0.2-0.2 0.4-0.4 0.5-0.7h0.1c0.4 0.1 0.5-0.2 0.7-0.5 0-0.1 0-0.2 0.1-0.2 0.2-0.2 0.2-0.4 0.1-0.7 0-0.1-0.1-0.3-0.1-0.4 0-0.1 0-0.1-0.1-0.2-0.3-0.2-0.3-0.4 0-0.6 0.2-0.1 0.2-0.3 0.3-0.4 0.1-0.2 0.1-0.4 0.1-0.7-0.1-0.3-0.1-0.7-0.2-1-0.1-0.4-0.2-0.9-0.3-1.3 0-0.1 0-0.1 0-0.2 0-0.3 0-0.5-0.1-0.8-0.1-0.1-0.1-0.3-0.1-0.4-0.1-0.3-0.2-0.5-0.5-0.6-0.3-0.2-0.7-0.3-1-0.5-0.1-0.1-0.2 0-0.3 0.1-0.1 0.2-0.3 0.4-0.4 0.6-0.1 0.1-0.2 0.3-0.3 0.5-0.2 0.2-0.6 0.4-0.9 0.1-0.1-0.2-0.2-0.3 0-0.5 0.2-0.3 0.4-0.6 0.7-0.8 0.1-0.1 0.2-0.3 0.3-0.4 0.1-0.2 0.1-0.4 0.1-0.6-0.1-0.4-0.2-0.8-0.2-1.3 0-0.5 0-0.9 0.1-1.4 0.1-0.2 0.1-0.5 0.2-0.7 0-0.1 0.1-0.3 0.2-0.4 0.2-0.2 0.4-0.4 0.5-0.7 0.1-0.3 0.3-0.6 0.3-0.9 0-0.1 0.1-0.2 0.1-0.3 0-0.1 0.1-0.3 0.1-0.4-0.1-0.3 0-0.5 0.1-0.7 0.1-0.2 0.2-0.5 0.3-0.7 0.2-0.4 0.2-0.9 0.6-1.3 0.1-0.2 0.2-0.4 0.3-0.6 0.1-0.4 0.3-0.7 0.5-1 0.1-0.1 0.1-0.1 0.1-0.2 0.1-0.3 0.3-0.6 0.5-0.9 0.2-0.3 0.2-0.6 0.3-0.9 0-0.1 0-0.2 0.1-0.3 0.3-0.3 0.2-0.7 0.1-1.1-0.2-0.5-0.3-1-0.2-1.5 0-0.1 0-0.2 0.1-0.2 0.1-0.2 0.1-0.3 0.2-0.5v-0.1c0.2-0.2 0.4-0.5 0.7-0.6 0.4-0.2 0.8-0.3 1.3-0.4 0.4 0 0.8-0.2 1.1-0.6 0-0.1 0.1-0.1 0.2-0.2l0.1-0.1c0.1-0.2 0.2-0.3 0.3-0.4 0.2-0.2 0.4-0.5 0.6-0.7 0.2-0.2 0.4-0.5 0.7-0.8l0.1-0.1c0.2-0.2 0.4-0.4 0.6-0.5 0.2-0.2 0.4-0.4 0.6-0.6 0.2-0.2 0.3-0.4 0.5-0.6 0.2-0.1 0.4-0.3 0.6-0.5 0.2-0.2 0.4-0.4 0.5-0.5 0.2-0.2 0.5-0.4 0.7-0.5 0.2-0.1 0.4-0.2 0.5-0.5 0.1-0.3 0.2-0.5 0.3-0.8 0-0.2 0.1-0.4 0.2-0.6 0.1 0 0.2 0 0.4-0.1-0.1-0.1-0.2-0.1-0.2-0.2 0-0.1 0.1-0.2 0.1-0.2 0-0.1 0.1-0.2 0.1-0.3 0 0 0.1 0 0.1-0.1 0 0 0.1 0 0.1-0.1-0.2 0.1-0.3 0-0.4-0.1 0.1 0.1 0.2 0.1 0.4 0.2 0 0 0.1 0 0.1-0.1 0-0.1 0-0.2 0-0.2 0 0-0.1 0-0.2 0-0.1 0-0.2 0.1-0.3 0.1zM54 70.5c0-0.1-0.1-0.1-0.1-0.2-0.1-0.2 0-0.3 0.1-0.4 0.1-0.1 0.2-0.1 0.4-0.1 0.2 0.1 0.3 0.2 0.3 0.4 0 0.1 0 0.3 0 0.4 0.1 0.4 0.1 0.4 0.5 0.4 0.2 0 0.4 0 0.6 0 0.4-0.1 0.8-0.3 1.2-0.4 0.4-0.1 0.8-0.2 1.2-0.3 0.1 0 0.2 0 0.4 0 0.4 0.1 0.7 0 1-0.2 0.1-0.1 0.3-0.1 0.4-0.2 0.2-0.1 0.4-0.1 0.6-0.2 0.5-0.3 1-0.5 1.4-0.8 0.3-0.2 0.6-0.4 0.9-0.6 0.3-0.2 0.6-0.4 0.9-0.6 0.2-0.1 0.5-0.3 0.7-0.5 0.4-0.3 0.7-0.6 1.1-0.8 0.2-0.1 0.3-0.2 0.4-0.3 0.2-0.1 0.3-0.3 0.5-0.4 0.1-0.1 0.2-0.2 0.4-0.3 0.1-0.1 0.1-0.1 0.1-0.2 0.3-0.2 0.6-0.6 0.8-0.9 0.2-0.2 0.4-0.4 0.6-0.7 0.3-0.3 0.5-0.7 0.8-1.1 0.2-0.2 0.4-0.5 0.5-0.7 0.2-0.4 0.4-0.8 0.7-1.1v-0.1c0.2-0.4 0.4-0.8 0.6-1.2 0.3-0.5 0.5-1.1 0.8-1.6 0.1-0.2 0.2-0.4 0.2-0.6 0.2-0.4 0.3-0.8 0.4-1.2 0-0.1 0-0.1 0.1-0.2 0.3-0.6 0.5-1.2 0.6-1.9 0.1-0.4 0.2-0.8 0.3-1.2 0.2-0.6 0.2-1.1 0.3-1.7 0.1-0.4 0.1-0.9 0.1-1.3 0.1-0.6 0.1-1.3 0-1.9 0-0.5-0.1-1.1-0.1-1.6 0-0.5-0.1-0.9-0.2-1.4-0.1-0.5-0.2-0.9-0.3-1.4-0.2-0.4-0.3-0.8-0.4-1.3-0.1-0.4-0.3-0.7-0.3-1.1 0-0.3-0.1-0.6-0.4-0.7-0.3-0.1-0.5-0.2-0.8-0.4-0.6-0.4-0.9-0.9-0.8-1.5 0-0.3 0.1-0.7 0.2-1 0.1-0.3 0.2-0.6 0-0.8-0.1-0.3-0.3-0.5-0.4-0.7-0.2-0.3-0.3-0.5-0.5-0.7-0.2-0.4-0.4-0.8-0.7-1.1-0.4-0.5-0.7-1-1.2-1.4l-0.1-0.1c-0.3-0.4-0.6-0.8-1-1.1-0.2-0.2-0.4-0.4-0.6-0.5-0.1-0.1-0.2-0.2-0.4-0.3-0.3-0.2-0.6-0.3-0.8-0.5-0.3-0.3-0.7-0.5-1-0.7 0 0-0.1 0-0.1-0.1-0.4-0.2-0.7-0.3-1.1-0.5-0.4-0.2-0.8-0.3-1.2-0.3-0.1 0-0.1 0-0.2 0-0.1-0.1-0.3-0.1-0.4-0.1-0.1 0-0.1 0-0.2 0-0.2-0.1-0.5 0-0.7 0-0.4 0.1-0.8 0.1-1.2-0.1-0.5-0.2-0.9-0.4-1.3-0.6-0.3-0.2-0.5-0.4-0.8-0.6-0.6-0.5-1.2-1.1-1.9-1.6 0.1-0.5-0.1-0.6-0.5-0.6-0.2 0-0.4 0.1-0.6 0.2-0.1 0.1-0.1 0.1-0.2 0.2-0.3 0.2-0.5 0.5-0.8 0.7-0.5 0.3-0.7 0.2-1.1 0-0.1-0.1-0.2-0.2-0.3-0.3-0.2-0.2-0.4-0.5-0.5-0.7-0.2-0.4-0.6-0.4-1-0.4-0.2 0-0.5 0.1-0.7 0.1-0.4 0-0.8 0.2-1 0.5-0.2 0.3-0.4 0.6-0.7 0.9-0.1 0.1-0.3 0.2-0.4 0.4-0.2 0.2-0.4 0.2-0.6 0-0.1-0.1-0.2-0.1-0.3-0.2-0.1 0.1-0.2 0.2-0.2 0.3-0.1 0.2-0.2 0.4-0.3 0.7-0.1 0.3-0.3 0.6-0.5 0.8-0.1 0.1-0.1 0.1-0.2 0.2-0.1 0.2-0.4 0.3-0.6 0.3-0.2 0.2-0.4 0.5-0.5 0.7-0.1 0.2-0.2 0.4-0.3 0.7-0.1 0.1-0.1 0.3-0.2 0.4-0.1 0.2-0.1 0.3-0.1 0.5 0.1 0.3-0.1 0.4-0.4 0.5-0.2 0-0.2 0-0.3 0.2 0 0.3 0.1 0.5 0.2 0.8 0.1 0.1 0.2 0.3 0.2 0.4 0 0.2 0.1 0.3 0.3 0.4 0.1 0.1 0.2 0.2 0.3 0.2 0.1 0 0.1 0.1 0.2 0.1 0.1 0.1 0.2 0 0.2-0.1 0.1-0.3 0.2-0.6 0.2-0.9 0.1-0.4 0.1-0.7 0.2-1.1 0.1-0.2 0.2-0.3 0.3-0.4 0 0 0.1 0 0.2 0v0.1c-0.1 0.5-0.3 1.1-0.4 1.6-0.1 0.2-0.1 0.4-0.2 0.6 0 0.1-0.1 0.2-0.2 0.2-0.2 0.1-0.4 0.2-0.6 0.2-0.1 0-0.2 0-0.3 0-0.2-0.1-0.4-0.3-0.6-0.4-0.1-0.1-0.2-0.2-0.3-0.3-0.1-0.2-0.2-0.4-0.3-0.6-0.1-0.2-0.2-0.3-0.4-0.4-0.1-0.1-0.2-0.1-0.3-0.2-0.2-0.2-0.4-0.3-0.7-0.3-0.1 0-0.3 0-0.4 0-0.1 0-0.3 0.1-0.4 0.2-0.2 0.1-0.3 0.1-0.5 0-0.5-0.2-1-0.1-1.5 0.1-0.2 0.1-0.4 0.2-0.6 0.2-0.5 0-0.9 0-1.4 0-0.5 0-0.9-0.1-1.4-0.2-0.2 0-0.4 0-0.6 0-0.4 0.1-0.5 0.4-0.4 0.8 0.1 0.4 0.2 0.9 0.2 1.3 0 0.3 0 0.6 0 0.9 0 0.2 0 0.3 0 0.5 0 0.3-0.1 0.6-0.1 0.9-0.1 0.6-0.4 1.1-0.8 1.5-0.3 0.3-0.7 0.6-1.1 0.7-0.2 0.1-0.4 0.2-0.7 0.3-0.5 0.2-0.9 0.6-1.2 1.1-0.1 0.2-0.2 0.4-0.3 0.6-0.2 0.3-0.3 0.5-0.5 0.8-0.1 0.2-0.3 0.4-0.4 0.6-0.1 0.2-0.3 0.3-0.3 0.5-0.2 0.4-0.3 0.8-0.5 1.2-0.1 0.2-0.1 0.5-0.2 0.7-0.2 0.4-0.2 0.8-0.2 1.3 0 0.1 0 0.2 0 0.4 0 0.5-0.1 1.1-0.1 1.6 0 0.5 0 1 0.1 1.5 0 0.2 0 0.5 0 0.7 0 0.4 0.1 0.9 0.1 1.3 0 0.4 0 0.9 0.2 1.3v0.1c0.1 0.4 0.1 0.8 0.2 1.2 0 0.1 0 0.2 0.1 0.3 0.2 0.6 0.3 1.1 0.5 1.7 0.1 0.4 0.3 0.8 0.4 1.2 0.1 0.4 0.5 0.8 0.6 1.3v0c0.3 0.6 0.6 1.2 1 1.8 0.1 0.2 0.3 0.4 0.4 0.6 0.2 0.3 0.3 0.6 0.5 0.8 0.1 0.2 0.3 0.4 0.4 0.5 0.1 0.2 0.2 0.4 0.4 0.6 0.2 0.2 0.4 0.5 0.6 0.7 0.3 0.5 0.7 0.9 1.1 1.2 0.2 0.2 0.4 0.3 0.6 0.5 0.1 0.1 0.2 0.1 0.2 0.2 0.1 0.1 0.2 0.2 0.4 0.3 0.8 0.4 1.4 1 2.1 1.6 0.3 0.3 0.6 0.6 1 0.8 0.4 0.3 0.7 0.6 1.2 0.7 0 0 0.1 0 0.1 0.1 0.2 0.2 0.5 0.3 0.7 0.4 0.4 0.2 0.9 0.4 1.3 0.6 0.1 0.1 0.3 0.1 0.4 0.2 0.3 0.1 0.6 0.2 0.9 0.3 0.3 0.1 0.5 0.2 0.8 0.2h0.1c0.2 0.1 0.3 0.1 0.5 0 0.1 0 0.2 0 0.2 0.1 0 0.1 0.1 0.1 0.2 0.1 0.1 0 0.2 0 0.4 0 0.1-0.1 0.1-0.2 0.2-0.4 0.1 0.1 0.2 0.1 0.2 0.1 0.1 0.2 0.3 0.2 0.5 0.2h0.1c0.2 0 0.3 0 0.4-0.1 0-0.1 0.2-0.1 0.3-0.1 0.3 0.1 0.6 0.1 0.9 0.2 0.2 0.1 0.5 0.1 0.6-0.1 0.1-0.1 0.2-0.2 0.4-0.1 0.2 0.1 0.3 0.1 0.5 0 0.1 0 0.2 0 0.2 0 0.3 0.1 0.5 0.1 0.8 0.2 0.4 0.1 0.4 0.1 0.7-0.2 0.1-0.1 0.3-0.1 0.4 0 0.1 0.2 0.1 0.3 0.1 0.5 0.1 0 0.1 0 0.2-0.1 0-0.2 0.1-0.2 0.3-0.3 0.1 0.1 0.1 0.1 0.2 0.1 0.2 0.2 0.3 0.2 0.4-0.1 0-0.1 0-0.2 0.1-0.2 0.1 0 0.2 0.1 0.2 0.1 0.1 0.2 0.3 0.3 0.4 0.5 0.2 0.2 0.5 0.2 0.6 0 0.1-0.1 0.2-0.1 0.3-0.1 0-0.1 0-0.2 0-0.3 0.3 0.2 0.2 0.2 0.1 0.2zM37.4 23.8c0.3 0.1 0.5 0.1 0.6-0.1-0.2 0.1-0.4-0.1-0.6 0.1z" fill="#000000" fill-rule="nonzero" stroke="none" stroke-width="1" stroke-linecap="butt" stroke-linejoin="miter" stroke-miterlimit="10" stroke-dasharray="" stroke-dashoffset="0" font-family="none" font-weight="none" font-size="none" text-anchor="none" style="mix-blend-mode: normal" data-fill-palette-color="tertiary"></path></g><g transform="matrix(1,0,0,1,64,161.01612978196567)"><svg viewBox="0 0 192 37.96774043606866" height="37.96774043606866" width="192"><g><svg viewBox="0 0 248.89271976117627 49.21819885583082" height="37.96774043606866" width="192"><g transform="matrix(1,0,0,1,0,6.802225746355781)"><svg viewBox="0 0 192 35.61374736311926" height="35.61374736311926" width="192"><g id="textblocktransform"><svg viewBox="0 0 192 35.61374736311926" height="35.61374736311926" width="192" id="textblock"><g><svg viewBox="0 0 192 20.011087703736557" height="20.011087703736557" width="192"><g transform="matrix(1,0,0,1,0,0)"><svg width="192" viewBox="4.5 -35.4 453.17 47" height="20.011087703736557" data-palette-color="#ffffff"><g class="wordmark-text-0" data-fill-palette-color="primary" id="text-0"><path d="M14.6 0.4L14.6 0.4Q11.55 0.4 8.83 0.25 6.1 0.1 4.5-0.1L4.5-0.1 4.5-34.9Q6.25-35.1 8.85-35.25 11.45-35.4 14.8-35.4L14.8-35.4Q21.2-35.4 24.65-32.98 28.1-30.55 28.1-26.4L28.1-26.4Q28.1-23.65 26.63-21.73 25.15-19.8 22.35-18.55L22.35-18.55Q25.75-17.35 27.5-15.23 29.25-13.1 29.25-10L29.25-10Q29.25-5.25 25.5-2.43 21.75 0.4 14.6 0.4ZM9.25-31.3L9.25-19.9 14.75-19.9Q18.7-19.9 21.03-21.55 23.35-23.2 23.35-25.8L23.35-25.8Q23.35-28.6 21.05-30.08 18.75-31.55 14.75-31.55L14.75-31.55Q13.1-31.55 11.75-31.48 10.4-31.4 9.25-31.3L9.25-31.3ZM14.95-3.55L14.95-3.55Q19.4-3.55 21.9-5.15 24.4-6.75 24.4-9.8L24.4-9.8Q24.4-12.8 21.95-14.5 19.5-16.2 14.95-16.2L14.95-16.2 9.25-16.2 9.25-3.85Q11.9-3.55 14.95-3.55ZM44 0.6L44 0.6Q41.75 0.6 39.75-0.35 37.75-1.3 36.5-3.43 35.25-5.55 35.25-9.1L35.25-9.1 35.25-26 39.75-26 39.75-9.7Q39.75-6.65 41.05-5.03 42.35-3.4 44.85-3.4L44.85-3.4Q46.9-3.4 48.82-4.23 50.75-5.05 52.25-6.45L52.25-6.45 52.25-26 56.75-26 56.75-6.75Q56.75-4.6 57.67-3.93 58.6-3.25 59.7-3.25L59.7-3.25 58.75 0.25Q54.1 0.25 53-3.45L53-3.45Q51.25-1.65 48.95-0.53 46.65 0.6 44 0.6ZM70.2 0L65.7 0 65.7-26 70.05-26 70.05-20.35Q70.7-22 71.8-23.43 72.9-24.85 74.55-25.73 76.2-26.6 78.4-26.6L78.4-26.6Q79.15-26.6 79.9-26.53 80.65-26.45 81.15-26.3L81.15-26.3 79.8-21.65Q78.85-22.05 77.55-22.05L77.55-22.05Q75.7-22.05 74.02-21 72.35-19.95 71.27-17.75 70.2-15.55 70.2-12.15L70.2-12.15 70.2 0ZM90.14 0L85.64 0 85.64-26 89.99-26 89.99-21.65Q91.39-23.75 93.54-25.18 95.69-26.6 98.44-26.6L98.44-26.6Q101.54-26.6 103.52-25.1 105.49-23.6 106.29-21.1L106.29-21.1Q107.84-23.4 109.97-25 112.09-26.6 115.24-26.6L115.24-26.6Q119.49-26.6 121.57-23.93 123.64-21.25 123.64-16.95L123.64-16.95 123.64 0 119.14 0 119.14-16.6Q119.14-19.3 117.89-20.98 116.64-22.65 114.44-22.65L114.44-22.65Q112.19-22.65 110.27-20.98 108.34-19.3 106.89-17.05L106.89-17.05 106.89 0 102.39 0 102.39-16.6Q102.39-19.3 101.14-20.98 99.89-22.65 97.69-22.65L97.69-22.65Q95.49-22.65 93.54-21.03 91.59-19.4 90.14-17.2L90.14-17.2 90.14 0ZM141.34 0.6L141.34 0.6Q138.09 0.6 135.44-1.05 132.79-2.7 131.22-5.73 129.64-8.75 129.64-12.85L129.64-12.85Q129.64-16.75 131.22-19.85 132.79-22.95 135.57-24.78 138.34-26.6 141.94-26.6L141.94-26.6Q144.19-26.6 146.02-25.83 147.84-25.05 149.19-23.9L149.19-23.9 149.19-26 153.29-26 153.29-6.3Q153.29-4.4 154.22-3.83 155.14-3.25 156.24-3.25L156.24-3.25 155.29 0.25Q150.49 0.25 149.49-3.65L149.49-3.65Q148.34-2.05 146.37-0.73 144.39 0.6 141.34 0.6ZM142.34-3.4L142.34-3.4Q144.24-3.4 145.94-4.33 147.64-5.25 148.79-6.65L148.79-6.65 148.79-20.6Q147.44-21.55 145.82-22.13 144.19-22.7 142.39-22.7L142.39-22.7Q139.99-22.7 138.17-21.48 136.34-20.25 135.29-18.07 134.24-15.9 134.24-13L134.24-13Q134.24-10.2 135.29-8.03 136.34-5.85 138.19-4.63 140.04-3.4 142.34-3.4Z" fill="#000000" data-fill-palette-color="primary"></path><path d="M187.24 0L182.49 0 182.49-30.8 171.74-30.8 171.74-35 197.99-35 197.99-30.8 187.24-30.8 187.24 0ZM212.44 0.6L212.44 0.6Q209.19 0.6 206.54-1.05 203.89-2.7 202.31-5.73 200.74-8.75 200.74-12.85L200.74-12.85Q200.74-16.75 202.31-19.85 203.89-22.95 206.66-24.78 209.44-26.6 213.04-26.6L213.04-26.6Q215.29-26.6 217.11-25.83 218.94-25.05 220.29-23.9L220.29-23.9 220.29-26 224.39-26 224.39-6.3Q224.39-4.4 225.31-3.83 226.24-3.25 227.33-3.25L227.33-3.25 226.39 0.25Q221.58 0.25 220.58-3.65L220.58-3.65Q219.44-2.05 217.46-0.73 215.49 0.6 212.44 0.6ZM213.44-3.4L213.44-3.4Q215.34-3.4 217.04-4.33 218.74-5.25 219.89-6.65L219.89-6.65 219.89-20.6Q218.54-21.55 216.91-22.13 215.29-22.7 213.49-22.7L213.49-22.7Q211.09-22.7 209.26-21.48 207.44-20.25 206.39-18.07 205.34-15.9 205.34-13L205.34-13Q205.34-10.2 206.39-8.03 207.44-5.85 209.29-4.63 211.14-3.4 213.44-3.4ZM240.33 0.6L240.33 0.6Q237.38 0.6 235.01-0.15 232.63-0.9 231.08-2.1L231.08-2.1 232.98-5.85Q234.28-4.75 236.26-4.03 238.23-3.3 240.48-3.3L240.48-3.3Q243.28-3.3 244.71-4.23 246.13-5.15 246.13-6.6L246.13-6.6Q246.13-7.65 245.61-8.45 245.08-9.25 243.68-10.03 242.28-10.8 239.63-11.7L239.63-11.7Q235.98-12.95 234.16-14.68 232.33-16.4 232.33-19.45L232.33-19.45Q232.33-22.45 234.96-24.53 237.58-26.6 242.23-26.6L242.23-26.6Q244.73-26.6 246.68-26.08 248.63-25.55 250.18-24.75L250.18-24.75 248.93-21.05Q247.58-21.85 245.86-22.35 244.13-22.85 242.03-22.85L242.03-22.85Q239.43-22.85 238.08-21.8 236.73-20.75 236.73-19.5L236.73-19.5Q236.73-18.3 237.78-17.45 238.83-16.6 241.88-15.6L241.88-15.6Q246.83-13.95 248.78-11.95 250.73-9.95 250.73-6.95L250.73-6.95Q250.73-3.45 247.91-1.43 245.08 0.6 240.33 0.6ZM265.83 0.6L265.83 0.6Q262.08 0.6 259.91-1.88 257.73-4.35 257.73-8.95L257.73-8.95 257.73-21.15 253.23-21.15 253.23-25.05 257.83-25.05 258.78-33.25 262.23-33.25 262.23-25.05 269.43-25.05 269.43-21.15 262.23-21.15 262.23-8.6Q262.23-5.7 263.46-4.55 264.68-3.4 266.38-3.4L266.38-3.4Q267.63-3.4 268.76-3.8 269.88-4.2 270.83-4.75L270.83-4.75 272.08-1.15Q271.08-0.55 269.38 0.03 267.68 0.6 265.83 0.6ZM277.23 11.6L277.23 11.6Q275.73 11.6 274.6 11.3 273.48 11 272.83 10.6L272.83 10.6 273.83 6.85Q274.43 7.2 275.33 7.45 276.23 7.7 277.33 7.7L277.33 7.7Q279.43 7.7 281.08 6.35 282.73 5 284.23 1.05L284.23 1.05 285.38-1.95 282.98-1.95 272.83-24.8 276.83-26.6 286.53-4.95 294.08-26.4 298.23-24.8 288.68 1.3Q287.23 5.3 285.53 7.55 283.83 9.8 281.78 10.7 279.73 11.6 277.23 11.6Z" fill="#000000" data-fill-palette-color="secondary"></path><path d="M322.48 0L317.73 0 317.73-35 322.48-35 322.48-20.05 339.73-20.05 339.73-35 344.48-35 344.48 0 339.73 0 339.73-15.95 322.48-15.95 322.48 0ZM363.93 0.6L363.93 0.6Q360.23 0.6 357.28-1.13 354.33-2.85 352.65-5.93 350.98-9 350.98-13L350.98-13Q350.98-17.2 352.68-20.25 354.38-23.3 357.33-24.95 360.28-26.6 363.93-26.6L363.93-26.6Q367.57-26.6 370.5-24.95 373.43-23.3 375.15-20.28 376.88-17.25 376.88-13.1L376.88-13.1Q376.88-8.95 375.18-5.88 373.48-2.8 370.55-1.1 367.63 0.6 363.93 0.6ZM363.93-3.4L363.93-3.4Q367.88-3.4 370.07-6.08 372.28-8.75 372.28-13L372.28-13Q372.28-15.6 371.18-17.78 370.07-19.95 368.2-21.28 366.32-22.6 363.93-22.6L363.93-22.6Q359.98-22.6 357.78-20 355.58-17.4 355.58-13.1L355.58-13.1Q355.58-10.5 356.68-8.28 357.78-6.05 359.65-4.73 361.53-3.4 363.93-3.4ZM391.37 0.6L391.37 0.6Q389.12 0.6 387.12-0.35 385.12-1.3 383.87-3.43 382.62-5.55 382.62-9.1L382.62-9.1 382.62-26 387.12-26 387.12-9.7Q387.12-6.65 388.42-5.03 389.72-3.4 392.22-3.4L392.22-3.4Q394.27-3.4 396.2-4.23 398.12-5.05 399.62-6.45L399.62-6.45 399.62-26 404.12-26 404.12-6.75Q404.12-4.6 405.05-3.93 405.97-3.25 407.07-3.25L407.07-3.25 406.12 0.25Q401.47 0.25 400.37-3.45L400.37-3.45Q398.62-1.65 396.32-0.53 394.02 0.6 391.37 0.6ZM420.07 0.6L420.07 0.6Q417.12 0.6 414.75-0.15 412.37-0.9 410.82-2.1L410.82-2.1 412.72-5.85Q414.02-4.75 416-4.03 417.97-3.3 420.22-3.3L420.22-3.3Q423.02-3.3 424.45-4.23 425.87-5.15 425.87-6.6L425.87-6.6Q425.87-7.65 425.35-8.45 424.82-9.25 423.42-10.03 422.02-10.8 419.37-11.7L419.37-11.7Q415.72-12.95 413.9-14.68 412.07-16.4 412.07-19.45L412.07-19.45Q412.07-22.45 414.7-24.53 417.32-26.6 421.97-26.6L421.97-26.6Q424.47-26.6 426.42-26.08 428.37-25.55 429.92-24.75L429.92-24.75 428.67-21.05Q427.32-21.85 425.6-22.35 423.87-22.85 421.77-22.85L421.77-22.85Q419.17-22.85 417.82-21.8 416.47-20.75 416.47-19.5L416.47-19.5Q416.47-18.3 417.52-17.45 418.57-16.6 421.62-15.6L421.62-15.6Q426.57-13.95 428.52-11.95 430.47-9.95 430.47-6.95L430.47-6.95Q430.47-3.45 427.65-1.43 424.82 0.6 420.07 0.6ZM446.87 0.6L446.87 0.6Q441.27 0.6 437.99-2.98 434.72-6.55 434.72-13L434.72-13Q434.72-16.9 436.19-19.98 437.67-23.05 440.32-24.83 442.97-26.6 446.47-26.6L446.47-26.6Q450.22-26.6 452.69-24.98 455.17-23.35 456.42-20.6 457.67-17.85 457.67-14.55L457.67-14.55Q457.67-12.8 457.52-11.15L457.52-11.15 439.32-11.15Q439.77-7.5 441.87-5.45 443.97-3.4 447.42-3.4L447.42-3.4Q449.67-3.4 451.47-3.88 453.27-4.35 454.92-5.1L454.92-5.1 455.97-1.25Q454.17-0.45 451.92 0.08 449.67 0.6 446.87 0.6ZM439.27-14.8L439.27-14.8 453.52-14.8Q453.52-18.6 451.62-20.65 449.72-22.7 446.37-22.7L446.37-22.7Q443.47-22.7 441.57-20.68 439.67-18.65 439.27-14.8Z" fill="#000000" data-fill-palette-color="tertiary"></path></g></svg></g></svg></g><g transform="matrix(1,0,0,1,79.27680000000001,24.735225244483868)"><svg viewBox="0 0 112.72319999999999 10.878522118635386" height="10.878522118635386" width="112.72319999999999"><g transform="matrix(1,0,0,1,0,0)"><svg width="112.72319999999999" viewBox="0.25 -36.95 488.01 47.1" height="10.878522118635386" data-palette-color="#8eaec4"><path d="M6.75 10.15L6.75 10.15Q5.3 10.15 4 9.63 2.7 9.1 2.2 8.05L2.2 8.05Q3.4 2.95 4.17-1 4.95-4.95 5.4-8.05 5.85-11.15 6.05-13.73 6.25-16.3 6.3-18.7L6.3-18.7Q4.6-18.6 3.05-18.38 1.5-18.15 0.35-17.75L0.35-17.75 0.25-18.1Q1.7-19.55 3.25-20.53 4.8-21.5 6.35-22.1L6.35-22.1 6.35-25.9Q6.35-29.75 7.9-32.18 9.45-34.6 11.88-35.77 14.3-36.95 16.9-36.95L16.9-36.95Q20.35-36.95 22.08-35.3 23.8-33.65 23.8-31.6L23.8-31.6Q23.8-30.1 22.88-28.7 21.95-27.3 20.1-26.38 18.25-25.45 15.45-25.45L15.45-25.45Q16.25-26.9 16.68-28.35 17.1-29.8 17.1-30.9L17.1-30.9Q17.1-31.75 16.85-32.27 16.6-32.8 16.15-32.8L16.15-32.8Q15.2-32.8 14.33-30.43 13.45-28.05 13.45-24.2L13.45-24.2 13.45-23.25Q14.9-23.3 16.23-23.2 17.55-23.1 18.7-23L18.7-23Q18.8-22.65 18.85-22.25 18.9-21.85 18.9-21.45L18.9-21.45Q18.9-20.7 18.7-19.95 18.5-19.2 18.15-18.4L18.15-18.4Q17.25-18.5 16.1-18.6 14.95-18.7 13.65-18.75L13.65-18.75 13.65-17.65Q13.65-14.9 13.43-11.3 13.2-7.7 12.6-2.75 12 2.2 10.75 9.05L10.75 9.05Q9.2 10.15 6.75 10.15ZM32.3 0.35L32.3 0.35Q28.55 0.35 26.1-1.15 23.65-2.65 22.47-5.13 21.3-7.6 21.3-10.4L21.3-10.4Q21.3-13.05 22.27-15.7 23.25-18.35 25.12-20.53 27-22.7 29.7-24.03 32.4-25.35 35.9-25.35L35.9-25.35Q39.65-25.35 42.07-23.83 44.5-22.3 45.67-19.8 46.85-17.3 46.85-14.45L46.85-14.45Q46.85-11.85 45.9-9.22 44.95-6.6 43.07-4.42 41.2-2.25 38.5-0.95 35.8 0.35 32.3 0.35ZM33.65-3.9L33.65-3.9Q35-3.9 35.9-5.3 36.8-6.7 37.25-8.88 37.7-11.05 37.7-13.3L37.7-13.3Q37.7-15.3 37.32-17.07 36.95-18.85 36.2-19.98 35.45-21.1 34.25-21.1L34.25-21.1Q32.95-21.1 32.02-19.7 31.1-18.3 30.65-16.15 30.2-14 30.2-11.7L30.2-11.7Q30.2-9.7 30.57-7.93 30.95-6.15 31.7-5.03 32.45-3.9 33.65-3.9ZM55.6 0.2L55.6 0.2Q53.8 0.2 52.4-1.28 51-2.75 51-5.45L51-5.45Q51-6.75 51.3-8.4 51.6-10.05 52-11.78 52.4-13.5 52.7-15.03 53-16.55 53-17.55L53-17.55Q53-18.6 52.62-19.23 52.25-19.85 51.65-19.85L51.65-19.85Q50.7-19.85 49.7-18.55L49.7-18.55 49.4-18.75Q49.35-19.55 49.75-20.65 50.15-21.75 51-22.78 51.85-23.8 53.17-24.5 54.5-25.2 56.3-25.2L56.3-25.2Q58.95-25.2 60.15-23.68 61.35-22.15 61.35-20L61.35-20Q61.35-19.65 61.32-19.28 61.3-18.9 61.25-18.55L61.25-18.55Q63.05-21.8 65.02-23.53 67-25.25 68.7-25.25L68.7-25.25Q70.3-25.25 71.05-24 71.8-22.75 71.8-21L71.8-21Q71.8-19.4 71.17-17.75 70.55-16.1 69.32-15.03 68.09-13.95 66.34-14L66.34-14 66.15-14.1Q66.09-15.4 65.3-16.15 64.5-16.9 63.5-16.9L63.5-16.9Q62.15-16.9 60.97-15.55 59.8-14.2 59.8-11.65L59.8-11.65Q59.8-10.1 60.15-8.3 60.5-6.5 60.5-5.25L60.5-5.25Q60.5-3.75 59.8-2.5 59.1-1.25 58-0.53 56.9 0.2 55.6 0.2ZM120.19 0L120.19 0Q118.59 0 117.12-0.9 115.64-1.8 114.74-3.75 113.84-5.7 113.84-8.75L113.84-8.75Q113.84-11.25 114.44-14.38 115.04-17.5 116.02-20.65 116.99-23.8 118.14-26.35L118.14-26.35Q114.69-24.05 112.09-20 109.49-15.95 107.59-10.6L107.59-10.6Q107.99-9 108.24-7.6 108.49-6.2 108.49-5.05L108.49-5.05Q108.49-2.85 107.44-1.6 106.39-0.35 103.79-0.35L103.79-0.35Q101.49-0.35 100.42-1.38 99.34-2.4 99.34-4.25L99.34-4.25Q99.34-5.45 99.77-7 100.19-8.55 100.99-10.35L100.99-10.35Q100.09-13 98.79-16.32 97.49-19.65 95.14-23.6L95.14-23.6Q94.44-20.65 93.72-17.73 92.99-14.8 92.52-12.33 92.04-9.85 92.04-8.15L92.04-8.15Q92.04-5.4 93.54-5.4L93.54-5.4 93.64-5.3Q93.64-3.65 92.82-2.48 91.99-1.3 90.72-0.68 89.44-0.05 88.04-0.05L88.04-0.05Q86.69-0.05 85.42-0.7 84.14-1.35 83.34-2.73 82.54-4.1 82.54-6.25L82.54-6.25Q82.54-8.3 83.27-10.73 83.99-13.15 85.09-15.68 86.19-18.2 87.34-20.63 88.49-23.05 89.42-25.18 90.34-27.3 90.64-28.9L90.64-28.9Q89.64-29.6 88.49-29.6L88.49-29.6Q87.54-29.6 86.57-28.98 85.59-28.35 84.74-26.9L84.74-26.9 84.39-27.05Q84.44-29.6 85.49-31.73 86.54-33.85 88.27-35.13 89.99-36.4 92.04-36.4L92.04-36.4Q94.39-36.4 96.89-34.35 99.39-32.3 101.52-27.6 103.64-22.9 104.94-14.9L104.94-14.9Q106.84-21.05 109.04-25.2 111.24-29.35 113.56-31.8 115.89-34.25 118.17-35.33 120.44-36.4 122.49-36.4L122.49-36.4Q125.04-36.4 127.07-35.15 129.09-33.9 130.27-32 131.44-30.1 131.44-28.2L131.44-28.2Q130.19-28.55 128.97-28.7 127.74-28.85 126.59-28.85L126.59-28.85Q125.44-28.85 124.39-28.7L124.39-28.7Q123.94-26.4 123.44-23.58 122.94-20.75 122.57-17.9 122.19-15.05 122.19-12.65L122.19-12.65Q122.19-10.2 122.69-8.65 123.19-7.1 124.44-7.1L124.44-7.1Q125.24-7.1 126.07-7.8 126.89-8.5 127.29-9.95L127.29-9.95 127.64-9.8Q127.64-6.5 126.54-4.33 125.44-2.15 123.72-1.07 121.99 0 120.19 0ZM142.44 10L142.44 10Q139.94 10 138.41 8.47 136.89 6.95 136.89 4.35L136.89 4.35Q136.89 3 137.36 1.38 137.84-0.25 138.94-2.05L138.94-2.05Q136.49-2.2 134.91-3.7 133.34-5.2 133.34-8.25L133.34-8.25Q133.34-10.05 133.81-12.13 134.29-14.2 134.74-16.03 135.19-17.85 135.19-18.85L135.19-18.85Q135.19-19.6 134.89-19.93 134.59-20.25 134.19-20.25L134.19-20.25Q133.79-20.25 133.31-19.93 132.84-19.6 132.59-18.95L132.59-18.95 131.74-19.85Q132.04-21.4 133.04-22.6 134.04-23.8 135.49-24.5 136.94-25.2 138.49-25.2L138.49-25.2Q140.24-25.2 141.54-24.08 142.84-22.95 142.84-20L142.84-20Q142.84-18.15 142.39-16.03 141.94-13.9 141.49-12.03 141.04-10.15 141.04-9.05L141.04-9.05Q141.04-8.05 141.46-7.58 141.89-7.1 142.44-7.1L142.44-7.1Q143.14-7.1 144.04-7.88 144.94-8.65 145.74-10.45 146.54-12.25 146.79-15.3L146.79-15.3Q146.89-16.25 146.94-17.73 146.99-19.2 147.04-20.48 147.09-21.75 147.09-22.05L147.09-22.05Q147.09-23.85 148.41-24.58 149.74-25.3 151.34-25.3L151.34-25.3Q152.74-25.3 153.99-24.75 155.24-24.2 155.69-22.9L155.69-22.9 155.79-22.6Q155.34-22.2 155.01-19.9 154.69-17.6 154.24-13.75L154.24-13.75Q153.94-11.25 153.49-8.1 153.04-4.95 152.26-1.78 151.49 1.4 150.21 4.08 148.94 6.75 147.04 8.38 145.14 10 142.44 10ZM141.24 4.25L141.24 4.25Q142.79 4.25 144.01 1.43 145.24-1.4 145.94-6.6L145.94-6.6Q142.74-2.5 141.54-0.15 140.34 2.2 140.34 3.25L140.34 3.25Q140.34 4.25 141.24 4.25ZM176.49 0.25L176.49 0.25Q174.74 0.25 173.44-0.9 172.14-2.05 172.14-4.65L172.14-4.65Q172.14-4.9 172.14-5.15 172.14-5.4 172.19-5.65L172.19-5.65Q170.69-2.65 168.81-1.23 166.94 0.2 165.04 0.2L165.04 0.2Q163.29 0.2 161.74-1.03 160.19-2.25 159.24-4.65 158.29-7.05 158.29-10.45L158.29-10.45Q158.29-13.95 159.26-16.7 160.24-19.45 161.84-21.35 163.44-23.25 165.34-24.23 167.24-25.2 169.04-25.2L169.04-25.2Q171.04-25.2 172.64-23.98 174.24-22.75 174.84-20.1L174.84-20.1Q174.99-20.95 175.06-21.65 175.14-22.35 175.14-22.6L175.14-22.6Q175.19-23.95 176.51-24.6 177.84-25.25 179.44-25.25L179.44-25.25Q180.84-25.25 182.09-24.7 183.34-24.15 183.79-22.85L183.79-22.85 183.89-22.55Q183.29-21.2 182.69-19.3 182.09-17.4 181.59-15.33 181.09-13.25 180.79-11.28 180.49-9.3 180.49-7.8L180.49-7.8Q180.49-6.15 180.84-5.53 181.19-4.9 181.69-4.9L181.69-4.9Q182.54-4.9 183.24-6.1L183.24-6.1 183.64-5.9Q183.64-4.2 182.54-2.8 181.44-1.4 179.79-0.58 178.14 0.25 176.49 0.25ZM168.34-6.1L168.34-6.1Q169.64-6.1 171.21-8.43 172.79-10.75 173.94-15.1L173.94-15.1Q174.04-15.55 174.14-15.98 174.24-16.4 174.29-16.8L174.29-16.8Q173.49-18.65 172.61-19.43 171.74-20.2 170.89-20.2L170.89-20.2Q169.64-20.2 168.56-18.88 167.49-17.55 166.81-15.55 166.14-13.55 166.14-11.55L166.14-11.55Q166.14-8.8 166.76-7.45 167.39-6.1 168.34-6.1ZM192.33 0.15L192.33 0.15Q190.48 0.15 188.98-1.33 187.48-2.8 187.48-5.45L187.48-5.45Q187.48-6.75 187.83-8.4 188.18-10.05 188.61-11.75 189.03-13.45 189.38-14.95 189.73-16.45 189.73-17.4L189.73-17.4Q189.73-18.4 189.33-18.98 188.93-19.55 188.28-19.55L188.28-19.55Q187.43-19.55 186.43-18.55L186.43-18.55 186.13-18.75Q186.08-19.55 186.48-20.65 186.88-21.75 187.71-22.78 188.53-23.8 189.83-24.5 191.13-25.2 192.93-25.2L192.93-25.2Q195.58-25.2 196.86-23.68 198.13-22.15 198.13-19.95L198.13-19.95Q198.13-19.15 197.98-18.4L197.98-18.4Q199.03-19.95 200.58-21.53 202.13-23.1 204.01-24.15 205.88-25.2 207.88-25.2L207.88-25.2Q210.23-25.2 211.08-23.7 211.93-22.2 211.93-19.95L211.93-19.95Q211.93-17.85 211.48-15.45 211.03-13.05 210.58-10.83 210.13-8.6 210.13-7.1L210.13-7.1Q210.13-5.1 211.28-5.1L211.28-5.1Q211.88-5.1 212.33-5.48 212.78-5.85 212.93-6.2L212.93-6.2 213.28-6.05Q213.28-4.2 212.26-2.8 211.23-1.4 209.68-0.63 208.13 0.15 206.53 0.15L206.53 0.15Q204.58 0.15 203.08-1.2 201.58-2.55 201.58-5.6L201.58-5.6Q201.58-7.4 202.06-9.5 202.53-11.6 202.98-13.55 203.43-15.5 203.43-16.75L203.43-16.75Q203.43-17.5 203.16-17.93 202.88-18.35 202.18-18.35L202.18-18.35Q201.03-18.35 199.66-17.3 198.28-16.25 197.31-14.5 196.33-12.75 196.33-10.65L196.33-10.65Q196.33-9.3 196.66-8.05 196.98-6.8 196.98-5.35L196.98-5.35Q196.98-2.65 195.58-1.25 194.18 0.15 192.33 0.15ZM221.33 0.2L221.33 0.2Q219.53 0.2 218.11-1.28 216.68-2.75 216.68-5.35L216.68-5.35Q216.68-6.65 217.03-8.33 217.38-10 217.81-11.75 218.23-13.5 218.58-15.05 218.93-16.6 218.93-17.65L218.93-17.65Q218.93-18.5 218.53-19.03 218.13-19.55 217.48-19.55L217.48-19.55Q216.63-19.55 215.63-18.55L215.63-18.55 215.33-18.75Q215.28-19.55 215.68-20.65 216.08-21.75 216.98-22.78 217.88-23.8 219.33-24.5 220.78-25.2 222.78-25.2L222.78-25.2Q225.03-25.2 226.16-23.63 227.28-22.05 227.28-19.85L227.28-19.85Q227.28-19.6 227.28-19.33 227.28-19.05 227.23-18.8L227.23-18.8Q228.18-20.35 229.46-21.8 230.73-23.25 232.36-24.23 233.98-25.2 235.88-25.2L235.88-25.2Q238.33-25.2 239.28-23.63 240.23-22.05 240.23-20.05L240.23-20.05Q240.23-19.65 240.21-19.28 240.18-18.9 240.13-18.55L240.13-18.55Q241.18-20.1 242.46-21.63 243.73-23.15 245.38-24.18 247.03-25.2 249.18-25.2L249.18-25.2Q251.83-25.2 252.81-23.65 253.78-22.1 253.78-20L253.78-20Q253.78-18.15 253.33-15.78 252.88-13.4 252.43-11.1 251.98-8.8 251.98-7.2L251.98-7.2Q251.98-6.25 252.25-5.65 252.53-5.05 253.18-5.05L253.18-5.05Q253.73-5.05 254.21-5.38 254.68-5.7 254.88-6.15L254.88-6.15 255.28-6Q255.28-4.15 254.23-2.75 253.18-1.35 251.58-0.58 249.98 0.2 248.38 0.2L248.38 0.2Q246.43 0.2 244.96-1.1 243.48-2.4 243.48-5.4L243.48-5.4Q243.48-7.25 243.96-9.4 244.43-11.55 244.91-13.58 245.38-15.6 245.38-16.9L245.38-16.9Q245.38-18.75 244.08-18.75L244.08-18.75Q243.13-18.75 242.21-17.98 241.28-17.2 240.56-15.93 239.83-14.65 239.38-13.25 238.93-11.85 238.93-10.55L238.93-10.55Q238.93-9.35 239.21-7.93 239.48-6.5 239.48-5.2L239.48-5.2Q239.48-2.6 238.03-1.2 236.58 0.2 234.63 0.2L234.63 0.2Q232.83 0.2 231.41-1 229.98-2.2 229.98-4.6L229.98-4.6Q229.98-5.7 230.28-7.28 230.58-8.85 230.96-10.58 231.33-12.3 231.63-13.9 231.93-15.5 231.93-16.7L231.93-16.7Q231.93-17.65 231.66-18.2 231.38-18.75 230.58-18.75L230.58-18.75Q229.43-18.75 228.38-17.6 227.33-16.45 226.58-14.83 225.83-13.2 225.58-11.7L225.58-11.7Q225.53-11.35 225.5-11.15 225.48-10.95 225.48-10.95L225.48-10.95Q225.48-9.4 225.83-8.13 226.18-6.85 226.18-5.5L226.18-5.5Q226.18-3.05 224.71-1.43 223.23 0.2 221.33 0.2ZM275.88 0.25L275.88 0.25Q274.13 0.25 272.83-0.9 271.53-2.05 271.53-4.65L271.53-4.65Q271.53-4.9 271.53-5.15 271.53-5.4 271.58-5.65L271.58-5.65Q270.08-2.65 268.2-1.23 266.33 0.2 264.43 0.2L264.43 0.2Q262.68 0.2 261.13-1.03 259.58-2.25 258.63-4.65 257.68-7.05 257.68-10.45L257.68-10.45Q257.68-13.95 258.65-16.7 259.63-19.45 261.23-21.35 262.83-23.25 264.73-24.23 266.63-25.2 268.43-25.2L268.43-25.2Q270.43-25.2 272.03-23.98 273.63-22.75 274.23-20.1L274.23-20.1Q274.38-20.95 274.45-21.65 274.53-22.35 274.53-22.6L274.53-22.6Q274.58-23.95 275.9-24.6 277.23-25.25 278.83-25.25L278.83-25.25Q280.23-25.25 281.48-24.7 282.73-24.15 283.18-22.85L283.18-22.85 283.28-22.55Q282.68-21.2 282.08-19.3 281.48-17.4 280.98-15.33 280.48-13.25 280.18-11.28 279.88-9.3 279.88-7.8L279.88-7.8Q279.88-6.15 280.23-5.53 280.58-4.9 281.08-4.9L281.08-4.9Q281.93-4.9 282.63-6.1L282.63-6.1 283.03-5.9Q283.03-4.2 281.93-2.8 280.83-1.4 279.18-0.58 277.53 0.25 275.88 0.25ZM267.73-6.1L267.73-6.1Q269.03-6.1 270.6-8.43 272.18-10.75 273.33-15.1L273.33-15.1Q273.43-15.55 273.53-15.98 273.63-16.4 273.68-16.8L273.68-16.8Q272.88-18.65 272-19.43 271.13-20.2 270.28-20.2L270.28-20.2Q269.03-20.2 267.95-18.88 266.88-17.55 266.2-15.55 265.53-13.55 265.53-11.55L265.53-11.55Q265.53-8.8 266.15-7.45 266.78-6.1 267.73-6.1ZM291.73 0.2L291.73 0.2Q289.93 0.2 288.52-1.28 287.13-2.75 287.13-5.45L287.13-5.45Q287.13-6.75 287.43-8.4 287.73-10.05 288.13-11.78 288.52-13.5 288.82-15.03 289.13-16.55 289.13-17.55L289.13-17.55Q289.13-18.6 288.75-19.23 288.38-19.85 287.77-19.85L287.77-19.85Q286.82-19.85 285.82-18.55L285.82-18.55 285.52-18.75Q285.48-19.55 285.88-20.65 286.27-21.75 287.13-22.78 287.98-23.8 289.3-24.5 290.63-25.2 292.43-25.2L292.43-25.2Q295.07-25.2 296.27-23.68 297.48-22.15 297.48-20L297.48-20Q297.48-19.65 297.45-19.28 297.43-18.9 297.38-18.55L297.38-18.55Q299.18-21.8 301.15-23.53 303.13-25.25 304.82-25.25L304.82-25.25Q306.43-25.25 307.18-24 307.93-22.75 307.93-21L307.93-21Q307.93-19.4 307.3-17.75 306.68-16.1 305.45-15.03 304.23-13.95 302.48-14L302.48-14 302.27-14.1Q302.23-15.4 301.43-16.15 300.63-16.9 299.63-16.9L299.63-16.9Q298.27-16.9 297.1-15.55 295.93-14.2 295.93-11.65L295.93-11.65Q295.93-10.1 296.27-8.3 296.63-6.5 296.63-5.25L296.63-5.25Q296.63-3.75 295.93-2.5 295.23-1.25 294.13-0.53 293.02 0.2 291.73 0.2ZM323.67 10.15L323.67 10.15Q322.22 10.15 320.92 9.63 319.62 9.1 319.12 8.05L319.12 8.05Q320.32 2.95 321.1-1 321.87-4.95 322.32-8.05 322.77-11.15 322.97-13.73 323.17-16.3 323.22-18.7L323.22-18.7Q321.52-18.6 319.97-18.38 318.42-18.15 317.27-17.75L317.27-17.75 317.17-18.1Q318.62-19.55 320.17-20.53 321.72-21.5 323.27-22.1L323.27-22.1 323.27-25.9Q323.27-29.75 324.82-32.18 326.37-34.6 328.8-35.77 331.22-36.95 333.82-36.95L333.82-36.95Q337.27-36.95 339-35.3 340.72-33.65 340.72-31.6L340.72-31.6Q340.72-30.1 339.8-28.7 338.87-27.3 337.02-26.38 335.17-25.45 332.37-25.45L332.37-25.45Q333.17-26.9 333.6-28.35 334.02-29.8 334.02-30.9L334.02-30.9Q334.02-31.75 333.77-32.27 333.52-32.8 333.07-32.8L333.07-32.8Q332.12-32.8 331.25-30.43 330.37-28.05 330.37-24.2L330.37-24.2 330.37-23.25Q331.82-23.3 333.15-23.2 334.47-23.1 335.62-23L335.62-23Q335.72-22.65 335.77-22.25 335.82-21.85 335.82-21.45L335.82-21.45Q335.82-20.7 335.62-19.95 335.42-19.2 335.07-18.4L335.07-18.4Q334.17-18.5 333.02-18.6 331.87-18.7 330.57-18.75L330.57-18.75 330.57-17.65Q330.57-14.9 330.35-11.3 330.12-7.7 329.52-2.75 328.92 2.2 327.67 9.05L327.67 9.05Q326.12 10.15 323.67 10.15ZM349.22 0.35L349.22 0.35Q345.47 0.35 343.02-1.15 340.57-2.65 339.39-5.13 338.22-7.6 338.22-10.4L338.22-10.4Q338.22-13.05 339.19-15.7 340.17-18.35 342.04-20.53 343.92-22.7 346.62-24.03 349.32-25.35 352.82-25.35L352.82-25.35Q356.57-25.35 358.99-23.83 361.42-22.3 362.59-19.8 363.77-17.3 363.77-14.45L363.77-14.45Q363.77-11.85 362.82-9.22 361.87-6.6 359.99-4.42 358.12-2.25 355.42-0.95 352.72 0.35 349.22 0.35ZM350.57-3.9L350.57-3.9Q351.92-3.9 352.82-5.3 353.72-6.7 354.17-8.88 354.62-11.05 354.62-13.3L354.62-13.3Q354.62-15.3 354.24-17.07 353.87-18.85 353.12-19.98 352.37-21.1 351.17-21.1L351.17-21.1Q349.87-21.1 348.94-19.7 348.02-18.3 347.57-16.15 347.12-14 347.12-11.7L347.12-11.7Q347.12-9.7 347.49-7.93 347.87-6.15 348.62-5.03 349.37-3.9 350.57-3.9ZM377.56 0.35L377.56 0.35Q373.81 0.35 371.37-1.15 368.92-2.65 367.74-5.13 366.56-7.6 366.56-10.4L366.56-10.4Q366.56-13.05 367.54-15.7 368.52-18.35 370.39-20.53 372.27-22.7 374.97-24.03 377.67-25.35 381.17-25.35L381.17-25.35Q384.92-25.35 387.34-23.83 389.77-22.3 390.94-19.8 392.12-17.3 392.12-14.45L392.12-14.45Q392.12-11.85 391.17-9.22 390.22-6.6 388.34-4.42 386.47-2.25 383.77-0.95 381.06 0.35 377.56 0.35ZM378.92-3.9L378.92-3.9Q380.27-3.9 381.17-5.3 382.06-6.7 382.52-8.88 382.97-11.05 382.97-13.3L382.97-13.3Q382.97-15.3 382.59-17.07 382.22-18.85 381.47-19.98 380.72-21.1 379.52-21.1L379.52-21.1Q378.22-21.1 377.29-19.7 376.37-18.3 375.92-16.15 375.47-14 375.47-11.7L375.47-11.7Q375.47-9.7 375.84-7.93 376.22-6.15 376.97-5.03 377.72-3.9 378.92-3.9ZM402.16 0.2L402.16 0.2Q400.36 0.2 398.79-1.05 397.21-2.3 396.24-4.7 395.26-7.1 395.26-10.5L395.26-10.5Q395.26-14 396.26-16.75 397.26-19.5 398.89-21.43 400.51-23.35 402.44-24.35 404.36-25.35 406.21-25.35L406.21-25.35Q408.26-25.35 409.86-24.08 411.46-22.8 412.06-20.1L412.06-20.1Q412.51-22.6 412.84-24.88 413.16-27.15 413.16-28.9L413.16-28.9Q413.16-31.2 412.56-32.25L412.56-32.25 412.56-32.55Q413.71-33.85 415.09-34.48 416.46-35.1 417.71-35.1L417.71-35.1Q419.36-35.1 420.51-34.08 421.66-33.05 421.66-31.15L421.66-31.15Q421.66-30.1 421.31-28.05 420.96-26 420.46-23.38 419.96-20.75 419.44-17.98 418.91-15.2 418.56-12.68 418.21-10.15 418.21-8.3L418.21-8.3Q418.21-6.75 418.54-5.83 418.86-4.9 419.61-4.9L419.61-4.9Q420.16-4.9 420.74-5.28 421.31-5.65 421.51-6.15L421.51-6.15 421.86-5.9Q421.86-4.25 420.81-2.88 419.76-1.5 418.16-0.65 416.56 0.2 414.86 0.2L414.86 0.2Q413.01 0.2 411.94-0.83 410.86-1.85 410.41-3.45 409.96-5.05 409.91-6.75L409.91-6.75Q408.36-3.15 406.29-1.48 404.21 0.2 402.16 0.2ZM405.51-6.15L405.51-6.15Q406.81-6.15 408.41-8.5 410.01-10.85 411.21-15.35L411.21-15.35 411.51-16.9Q410.71-18.75 409.79-19.53 408.86-20.3 408.01-20.3L408.01-20.3Q406.76-20.3 405.66-18.93 404.56-17.55 403.89-15.43 403.21-13.3 403.21-10.95L403.21-10.95Q403.21-8.7 403.86-7.43 404.51-6.15 405.51-6.15ZM433.51-26.75L433.51-26.75Q431.51-26.75 430.24-27.98 428.96-29.2 428.96-31.05L428.96-31.05Q428.96-33.05 430.46-34.5 431.96-35.95 434.11-35.95L434.11-35.95Q436.11-35.95 437.39-34.7 438.66-33.45 438.66-31.6L438.66-31.6Q438.66-29.6 437.16-28.18 435.66-26.75 433.51-26.75ZM430.01 0.2L430.01 0.2Q428.06 0.2 426.51-1.18 424.96-2.55 424.96-5.6L424.96-5.6Q424.96-7.35 425.44-8.88 425.91-10.4 426.54-11.85 427.16-13.3 427.64-14.68 428.11-16.05 428.11-17.4L428.11-17.4Q428.11-18.6 427.71-19.13 427.31-19.65 426.76-19.65L426.76-19.65Q425.91-19.65 425.11-18.55L425.11-18.55 424.76-18.75Q424.96-20.75 426.04-22.18 427.11-23.6 428.69-24.4 430.26-25.2 431.81-25.2L431.81-25.2Q433.71-25.2 435.11-23.98 436.51-22.75 436.51-20L436.51-20Q436.51-18.35 436.04-16.53 435.56-14.7 434.94-12.9 434.31-11.1 433.84-9.55 433.36-8 433.36-6.9L433.36-6.9Q433.36-5.95 433.74-5.55 434.11-5.15 434.56-5.15L434.56-5.15Q435.01-5.15 435.44-5.43 435.86-5.7 436.06-6.05L436.06-6.05 436.41-5.95Q436.41-4.1 435.44-2.73 434.46-1.35 433.01-0.58 431.56 0.2 430.01 0.2ZM451.11 0.35L451.11 0.35Q447.46 0.35 445.06-1.13 442.66-2.6 441.46-5.03 440.26-7.45 440.26-10.25L440.26-10.25Q440.26-12.9 441.28-15.58 442.31-18.25 444.28-20.45 446.26-22.65 449.08-24 451.91-25.35 455.46-25.35L455.46-25.35Q459.86-25.35 461.88-23.38 463.91-21.4 463.91-18.6L463.91-18.6Q463.91-16.2 462.63-14.18 461.36-12.15 459.26-10.93 457.16-9.7 454.66-9.7L454.66-9.7Q453.36-9.7 452.01-10.1 450.66-10.5 449.36-11.35L449.36-11.35Q449.61-8.25 451.16-6.85 452.71-5.45 454.86-5.45L454.86-5.45Q456.36-5.45 457.86-6.03 459.36-6.6 460.63-7.53 461.91-8.45 462.61-9.5L462.61-9.5 462.96-9.25Q462.96-6.65 461.88-4.83 460.81-3 459.06-1.85 457.31-0.7 455.23-0.18 453.16 0.35 451.11 0.35ZM452.26-13.15L452.26-13.15Q453.86-13.15 454.86-14.08 455.86-15 456.36-16.25 456.86-17.5 456.86-18.45L456.86-18.45Q456.86-19.6 456.21-20.38 455.56-21.15 454.41-21.15L454.41-21.15Q453.51-21.15 452.43-20.5 451.36-19.85 450.51-18.28 449.66-16.7 449.41-13.9L449.41-13.9Q451.01-13.15 452.26-13.15ZM474.91 0.45L474.91 0.45Q471.81 0.45 469.76-0.4 467.71-1.25 466.71-2.58 465.71-3.9 465.71-5.25L465.71-5.25Q465.71-7.15 467.41-8.63 469.11-10.1 472.01-10.1L472.01-10.1Q472.01-7.55 472.66-6.03 473.31-4.5 474.33-3.85 475.36-3.2 476.31-3.2L476.31-3.2Q477.46-3.2 478.23-3.88 479.01-4.55 479.01-5.55L479.01-5.55Q479.01-6.95 477.56-8 476.11-9.05 473.81-10.35L473.81-10.35Q472.66-11.05 471.31-11.98 469.96-12.9 469.01-14.23 468.06-15.55 468.06-17.4L468.06-17.4Q468.06-19.35 469.18-20.85 470.31-22.35 472.16-23.38 474.01-24.4 476.16-24.93 478.31-25.45 480.36-25.45L480.36-25.45Q484.21-25.45 486.16-23.9 488.11-22.35 488.11-20.6L488.11-20.6Q488.11-19.1 486.61-17.9 485.11-16.7 482.01-16.7L482.01-16.7Q482.06-19.25 480.96-20.43 479.86-21.6 478.61-21.6L478.61-21.6Q477.71-21.6 477.11-21.05 476.51-20.5 476.51-19.45L476.51-19.45Q476.51-18.25 477.28-17.38 478.06-16.5 479.23-15.83 480.41-15.15 481.66-14.55L481.66-14.55Q483.36-13.75 484.86-12.85 486.36-11.95 487.31-10.8 488.26-9.65 488.26-8L488.26-8Q488.26-5.75 486.43-3.83 484.61-1.9 481.56-0.73 478.51 0.45 474.91 0.45Z" opacity="1" transform="matrix(1,0,0,1,0,0)" fill="#000000" class="slogan-text-1" data-fill-palette-color="secondary" id="text-1"></path></svg></g></svg></g></svg></g></svg></g><g transform="matrix(1,0,0,1,196.7241375407473,0)"><svg viewBox="0 0 52.168582220428945 49.21819885583082" height="49.21819885583082" width="52.168582220428945"><g><svg xmlns="http://www.w3.org/2000/svg" xmlns:xlink="http://www.w3.org/1999/xlink" version="1.1" x="0" y="0" viewBox="8.963513781583005 10.79709265003703 81.92052419839703 77.28752591615769" enable-background="new 0 0 100 100" xml:space="preserve" height="49.21819885583082" width="52.168582220428945" class="icon-icon-0" data-fill-palette-color="accent" id="icon-0"><g fill="#8eaec4" data-fill-palette-color="accent"><path d="M75.559 67.102C75.559 72.681 75.508 78.152 75.592 83.621 75.616 85.155 75.011 86.051 73.625 86.291 70.559 86.822 67.482 87.453 64.387 87.621 58.473 87.943 52.543 88.125 46.621 88.077 40.157 88.024 33.675 87.904 27.297 86.605 26.719 86.487 26.158 86.276 25.598 86.082 24.613 85.74 24.2 85.087 24.209 83.994 24.254 78.753 24.201 73.511 24.255 68.269 24.265 67.327 23.956 66.956 23.107 66.604 13.58 62.653 8.137 53.54 9.066 43.198 9.947 33.394 18.043 24.795 27.791 23.379 29.141 23.183 29.976 22.677 30.752 21.444 39.887 6.926 60.834 7.347 69.535 22.146 69.802 22.6 70.44 23.023 70.964 23.112 80.419 24.712 86.92 29.932 89.834 39.08 93.377 50.203 87.678 61.991 76.895 66.515 76.474 66.692 76.058 66.883 75.559 67.102M28.61 81.888A199.3 199.3 0 0 1 71.179 81.883V69.427C71.101 67.549 71.179 65.665 71.179 63.801 83.493 61.349 88.118 49.705 85.959 41.221 83.807 32.766 76.085 27.992 71.78 27.98 72.02 29.597 72.387 31.217 72.466 32.851 72.545 34.487 71.582 35.429 70.223 35.396 68.959 35.366 68.184 34.42 68.132 32.841 67.694 19.632 53.909 11.262 41.985 16.98 39.006 18.408 36.572 20.475 34.767 23.294 36.433 23.713 38.016 24 39.52 24.518 41.17 25.087 41.752 26.313 41.21 27.589 40.704 28.779 39.511 29.155 37.942 28.537 34.912 27.345 31.764 27.079 28.604 27.6 20.093 29.004 13.913 35.989 13.343 44.682 12.798 52.99 18.294 60.706 26.5 63.151 27.19 63.356 27.879 63.545 28.61 63.753 28.61 65.719 28.686 67.603 28.61 69.483z" fill="#000000" data-fill-palette-color="accent"></path></g><path d="M38.54 73.868C38.54 74.904 37.561 75.743 36.352 75.743 35.144 75.743 34.164 74.904 34.164 73.868V62.618C34.164 61.582 35.143 60.743 36.352 60.743 37.56 60.743 38.54 61.582 38.54 62.618z" fill="#000000" data-fill-palette-color="accent"></path><path d="M65.665 73.868C65.665 74.904 64.686 75.743 63.477 75.743 62.269 75.743 61.289 74.904 61.289 73.868V62.618C61.289 61.582 62.268 60.743 63.477 60.743 64.685 60.743 65.665 61.582 65.665 62.618z" fill="#000000" data-fill-palette-color="accent"></path><path d="M47.728 52.743A2.188 2.188 0 1 1 52.104 52.743V72.68A2.188 2.188 0 1 1 47.728 72.68z" fill="#000000" data-fill-palette-color="accent"></path></svg></g></svg></g></svg></g></svg></g></svg></g><defs></defs></svg><rect width="320" height="360" fill="none" stroke="none" visibility="hidden"></rect></g></svg></g></svg>